<svg xmlns="http://www.w3.org/2000/svg" viewBox="0 0 64 38">
  <defs>
    <linearGradient id="arrowBody" x1="0" x2="1" y1="0" y2="1">
      <stop offset="0" stop-color="#ffffff"/>
      <stop offset="0.5" stop-color="#bce0ff"/>
      <stop offset="1" stop-color="#4e95ff"/>
    </linearGradient>
    <radialGradient id="arrowGlow" cx="0.5" cy="0.5" r="0.6">
      <stop offset="0" stop-color="#fff" stop-opacity="0.85"/>
      <stop offset="0.6" stop-color="#5fa9ff" stop-opacity="0.32"/>
      <stop offset="1" stop-color="#1a54ff" stop-opacity="0"/>
    </radialGradient>
    <filter id="arrowShadow" x="-40%" y="-60%" width="180%" height="220%">
      <feDropShadow dx="0" dy="2" stdDeviation="2" flood-color="#000" flood-opacity="0.55"/>
    </filter>
  </defs>

  <ellipse cx="32" cy="19" rx="26" ry="12" fill="url(#arrowGlow)" opacity="0.5">
    <animate attributeName="rx" values="22;28;22" dur="1.1s" repeatCount="indefinite"/>
    <animate attributeName="opacity" values="0.32;0.62;0.32" dur="1.1s" repeatCount="indefinite"/>
  </ellipse>

  <g filter="url(#arrowShadow)">
    <path d="M3 19c6-9 16-14 29-14 10 0 20 3 29 14-9 11-19 14-29 14C19 33 9 28 3 19Z" fill="url(#arrowBody)"/>
    <path d="M8 19c6-6 14-10 24-10s18 4 24 10c-6 7-14 10-24 10S14 26 8 19Z" fill="#b8d8ff" opacity="0.85"/>
    <circle cx="32" cy="19" r="9" fill="#4e95ff">
      <animate attributeName="r" values="8;10;8" dur="0.8s" repeatCount="indefinite"/>
    </circle>
    <circle cx="32" cy="19" r="4" fill="#10213f">
      <animate attributeName="r" values="3.4;4.4;3.4" dur="0.8s" repeatCount="indefinite"/>
    </circle>
    <path d="M32 5 48 1l-5 8M32 33l16 4-5-8" fill="none" stroke="#e5533f" stroke-width="3" stroke-linecap="round" stroke-linejoin="round">
      <animate attributeName="stroke" values="#e5533f;#ffd84d;#e5533f" dur="0.6s" repeatCount="indefinite"/>
    </path>
  </g>
</svg>
